<svg xmlns="http://www.w3.org/2000/svg" viewBox="0 0 408.55 100.81"><g id="Capa_2" data-name="Capa 2"><g id="Capa_1-2" data-name="Capa 1"><path d="M187.78,0h16.3V5.77c0,20.15-.05,40.31,0,60.46,0,8.09,4.19,14.16,11.1,16.76a16.94,16.94,0,1,0,10.26-32.26c-1.27-.34-2.56-.65-4.07-1V33.18c4.16.85,8.1,1.16,11.67,2.48,15.81,5.81,24.57,22.48,20.87,39.15-3.57,16.09-19.16,27.28-36.08,25.88a33.52,33.52,0,0,1-30.34-32.34c-.44-22-.11-44-.09-66A19.16,19.16,0,0,1,187.78,0Z"/><path d="M331.82,100.44c-1.36.15-2.15.3-2.95.31-4.31,0-8.62,0-13.73,0v-16c0-5.49.05-11,0-16.47C315,58.13,308.43,50.75,299,50.1c-8.76-.61-16.84,6.38-17.79,15.42S286.45,82.1,296.33,84a16.63,16.63,0,0,1,1.75.61c0,3.92,0,7.89,0,11.86,0,1.3-.18,2.59-.27,3.83-14,1.55-29.45-10.59-32.51-25.65-2.81-13.82,1.26-25.47,12.37-34.16,10.67-8.34,22.75-9.35,34.77-3.72C324.92,42.59,331.52,53,331.78,67,332,78.06,331.82,89.17,331.82,100.44Z"/><path d="M33.44,84.61v15.66C18.2,102.09,1.92,87.79.2,71.32c-2-19.48,12-36.66,30.67-37.66C51.48,32.56,67,46.9,67.19,67.34c.11,10.94,0,21.89,0,33.13H50.63V86.71c0-6,.06-12,0-18-.15-10.64-6.6-18-16.17-18.65a17.14,17.14,0,0,0-17.57,14.5C15.6,74.61,21.52,82,32.4,84A4.69,4.69,0,0,1,33.44,84.61Z"/><path d="M408.55,66.63H394.1c-3.28-4.84-5.45-9.64-9-12.95-4.9-4.55-11.27-4.77-17.29-1.83-6.38,3.13-9.64,8.55-9.69,15.68-.08,10.82,0,21.64,0,32.84H341.4c0-6.37-.1-12.82,0-19.26.14-7-.19-14.06.88-20.92,2.62-16.87,18.79-28,37.33-26.37C395.32,35.2,408.61,50.05,408.55,66.63Z"/><path d="M93.69,100.49H77.6c0-13.52-1.18-26.91.3-40,1.77-15.74,16.36-26.81,32.4-26.89s29.93,10.76,33.21,26.23a65.68,65.68,0,0,1,.72,6.69H129.74c-3.5-5-5.78-9.72-9.38-13-4.78-4.36-11-4.54-16.85-1.76s-9.5,7.45-9.68,14c-.26,9.65-.11,19.31-.14,29Z"/><path d="M177.7,100.54H161.27v-26c0-17.12-1.07-18.74-16.66-25.24V33.75c2.63.15,5.09,0,7.41.48,12.84,2.76,24.43,14.43,25.47,27.61C178.48,74.54,177.7,87.38,177.7,100.54Z"/></g></g></svg>